<svg xmlns="http://www.w3.org/2000/svg" width="26.387" height="26.38" viewBox="0 0 26.387 26.38">
  <path id="Icon_awesome-instagram" data-name="Icon awesome-instagram" d="M13.191,8.664a6.763,6.763,0,1,0,6.764,6.763A6.753,6.753,0,0,0,13.191,8.664Zm0,11.161a4.4,4.4,0,1,1,4.4-4.4A4.405,4.405,0,0,1,13.191,19.825ZM21.809,8.387A1.578,1.578,0,1,1,20.231,6.81,1.574,1.574,0,0,1,21.809,8.387Zm4.48,1.6a7.807,7.807,0,0,0-2.131-5.527A7.859,7.859,0,0,0,18.63,2.33c-2.178-.124-8.706-.124-10.884,0A7.847,7.847,0,0,0,2.218,4.455,7.832,7.832,0,0,0,.087,9.983c-.124,2.178-.124,8.706,0,10.884a7.807,7.807,0,0,0,2.131,5.527,7.869,7.869,0,0,0,5.528,2.131c2.178.124,8.706.124,10.884,0a7.807,7.807,0,0,0,5.528-2.131,7.858,7.858,0,0,0,2.131-5.527c.124-2.178.124-8.7,0-10.878ZM23.475,23.2a4.452,4.452,0,0,1-2.508,2.508c-1.737.689-5.857.53-7.776.53s-6.046.153-7.776-.53A4.452,4.452,0,0,1,2.907,23.2c-.689-1.736-.53-5.857-.53-7.776s-.153-6.045.53-7.776A4.452,4.452,0,0,1,5.415,5.144c1.737-.689,5.857-.53,7.776-.53s6.046-.153,7.776.53a4.452,4.452,0,0,1,2.508,2.508c.689,1.736.53,5.857.53,7.776S24.164,21.473,23.475,23.2Z" transform="translate(0.005 -2.238)" fill="#0a674a"/>
</svg>
