<svg xmlns="http://www.w3.org/2000/svg" width="26.38" height="26.38" viewBox="0 0 26.38 26.38">
  <path id="Icon_awesome-route" data-name="Icon awesome-route" d="M21.434,16.487H16.487a1.649,1.649,0,1,1,0-3.3h4.946S26.38,7.677,26.38,4.946a4.946,4.946,0,0,0-9.892,0c0,1.314,1.144,3.267,2.334,4.946H16.487a4.946,4.946,0,1,0,0,9.892h4.946a1.649,1.649,0,0,1,0,3.3H9.558a35.572,35.572,0,0,1-2.437,3.3H21.434a4.946,4.946,0,0,0,0-9.892Zm0-13.19a1.649,1.649,0,1,1-1.649,1.649A1.647,1.647,0,0,1,21.434,3.3ZM4.946,13.19A4.948,4.948,0,0,0,0,18.136c0,2.731,4.946,8.244,4.946,8.244s4.946-5.513,4.946-8.244A4.948,4.948,0,0,0,4.946,13.19Zm0,6.595a1.649,1.649,0,1,1,1.649-1.649A1.647,1.647,0,0,1,4.946,19.785Z" fill="#0a674a"/>
</svg>
