<svg xmlns="http://www.w3.org/2000/svg" width="18.631" height="69.396" viewBox="0 0 18.631 69.396">
  <g id="Group_1106" data-name="Group 1106" transform="translate(-20.833 -349)">
    <g id="Group_1105" data-name="Group 1105" transform="translate(147.422 636.847) rotate(-90)">
      <g id="Group_1" data-name="Group 1" transform="translate(218.451 -126.588)">
        <path id="Path_5" data-name="Path 5" d="M73.485,194.5H76l1.667,5.384c.186.6.357,1.521.357,1.521h.027s.172-.926.357-1.521L80.1,194.5h2.474l-3.334,9.459H76.832Z" transform="translate(-73.485 -194.344)" fill="#fecb35"/>
        <path id="Path_6" data-name="Path 6" d="M101.554,194.5h2.315v9.459h-2.315Z" transform="translate(-90.926 -194.344)" fill="#fecb35"/>
        <path id="Path_7" data-name="Path 7" d="M114.227,200.752a3.919,3.919,0,0,0,2.262.979c.476,0,.992-.185.992-.754,0-1.125-4.26-1.085-4.26-4,0-1.746,1.468-2.9,3.347-2.9a4.29,4.29,0,0,1,3.043,1.072l-.979,1.892a3.611,3.611,0,0,0-2.09-.833c-.476,0-1.005.212-1.005.741,0,1.19,4.26.979,4.26,3.969a3.011,3.011,0,0,1-3.334,2.937,4.884,4.884,0,0,1-3.453-1.349Z" transform="translate(-98.044 -194.084)" fill="#fecb35"/>
        <path id="Path_8" data-name="Path 8" d="M136.549,194.5h2.315v9.459h-2.315Z" transform="translate(-112.67 -194.344)" fill="#fecb35"/>
        <path id="Path_9" data-name="Path 9" d="M153.1,194.084a4.785,4.785,0,0,1,4.948,4.829,4.948,4.948,0,0,1-9.9,0A4.784,4.784,0,0,1,153.1,194.084Zm0,7.66a2.668,2.668,0,0,0,2.554-2.831,2.558,2.558,0,1,0-5.107,0A2.668,2.668,0,0,0,153.1,201.744Z" transform="translate(-119.877 -194.084)" fill="#fecb35"/>
        <path id="Path_10" data-name="Path 10" d="M179.866,194.5h2.342l2.619,4.419a16.944,16.944,0,0,1,.794,1.614h.026s-.106-1.019-.106-1.614V194.5h2.315v9.459h-2.328l-2.633-4.406a16.872,16.872,0,0,1-.794-1.614h-.026s.106,1.019.106,1.614v4.406h-2.315Z" transform="translate(-139.585 -194.344)" fill="#fecb35"/>
        <path id="Path_11" data-name="Path 11" d="M217.687,202.683c0-3.493,4.088-4.114,4.088-5.477a.934.934,0,0,0-1.019-.939c-.9,0-1.4,1.005-1.4,1.005l-1.72-1.151a3.648,3.648,0,0,1,3.334-2.038,2.951,2.951,0,0,1,3.228,2.9c0,2.95-3.81,3.519-3.876,4.736h4.022V203.7h-6.549A5.824,5.824,0,0,1,217.687,202.683Z" transform="translate(-163.053 -194.084)" fill="#fecb35"/>
        <path id="Path_12" data-name="Path 12" d="M239.672,201.978h2.011v-3.942c0-.357.013-.728.013-.728h-.027a1.793,1.793,0,0,1-.37.5l-.569.516-1.336-1.429,2.554-2.395h2v7.475h2.024v1.984h-6.3Z" transform="translate(-176.573 -194.344)" fill="#fecb35"/>
      </g>
      <g id="Group_4" data-name="Group 4" transform="translate(222.049 -113.184)">
        <path id="Path_19" data-name="Path 19" d="M83.388,233.509a2,2,0,0,0,1.289.544.779.779,0,0,0,.874-.745c0-1.1-2.448-.859-2.448-2.412a1.5,1.5,0,0,1,1.632-1.41,2.071,2.071,0,0,1,1.432.508l-.322.587a1.781,1.781,0,0,0-1.109-.437.827.827,0,0,0-.917.738c0,1.045,2.449.766,2.449,2.406a1.456,1.456,0,0,1-1.6,1.424,2.365,2.365,0,0,1-1.676-.666Z" transform="translate(-82.987 -229.486)" fill="#fecb35"/>
        <path id="Path_20" data-name="Path 20" d="M99.178,229.713h1.847a1.509,1.509,0,0,1,1.589,1.582,1.526,1.526,0,0,1-1.589,1.6H99.887v1.868h-.709Zm1.732,2.57a.912.912,0,0,0,.981-.988.894.894,0,0,0-.974-.966H99.887v1.954Z" transform="translate(-93.047 -229.627)" fill="#fecb35"/>
        <path id="Path_21" data-name="Path 21" d="M117.349,229.486a2.547,2.547,0,0,1,2.591,2.577,2.6,2.6,0,1,1-5.19,0A2.553,2.553,0,0,1,117.349,229.486Zm0,4.575a1.91,1.91,0,0,0,1.861-2,1.866,1.866,0,1,0-3.73,0A1.915,1.915,0,0,0,117.349,234.061Z" transform="translate(-102.723 -229.486)" fill="#fecb35"/>
        <path id="Path_22" data-name="Path 22" d="M136.027,229.713h1.546a2.557,2.557,0,0,1,.945.114,1.5,1.5,0,0,1-.058,2.735v.014a1.437,1.437,0,0,1,.15.229l1.074,1.961h-.8l-1.067-2.012h-1.081v2.012h-.709Zm1.725,2.427a.841.841,0,0,0,.895-.916.827.827,0,0,0-.4-.78,1.393,1.393,0,0,0-.694-.114h-.816v1.811Z" transform="translate(-115.944 -229.627)" fill="#fecb35"/>
        <path id="Path_23" data-name="Path 23" d="M152.954,230.329h-1.733v-.616h4.174v.616h-1.733v4.438h-.708Z" transform="translate(-125.384 -229.627)" fill="#fecb35"/>
        <path id="Path_24" data-name="Path 24" d="M168.578,233.509a2,2,0,0,0,1.289.544.779.779,0,0,0,.874-.745c0-1.1-2.448-.859-2.448-2.412a1.5,1.5,0,0,1,1.632-1.41,2.072,2.072,0,0,1,1.432.508l-.322.587a1.781,1.781,0,0,0-1.109-.437.827.827,0,0,0-.917.738c0,1.045,2.449.766,2.449,2.406a1.457,1.457,0,0,1-1.6,1.424,2.364,2.364,0,0,1-1.675-.666Z" transform="translate(-135.92 -229.486)" fill="#fecb35"/>
        <path id="Path_25" data-name="Path 25" d="M185.926,229.486a2.6,2.6,0,0,1,1.84.666l-.351.53a2.307,2.307,0,0,0-1.46-.551,1.837,1.837,0,0,0-1.869,1.933,1.9,1.9,0,0,0,1.875,2,2.287,2.287,0,0,0,1.561-.659l.379.509a2.71,2.71,0,0,1-1.961.8,2.613,2.613,0,0,1-.014-5.226Z" transform="translate(-145.352 -229.486)" fill="#fecb35"/>
        <path id="Path_26" data-name="Path 26" d="M202.487,229.713h.708v4.439h2.262v.616h-2.971Z" transform="translate(-157.239 -229.627)" fill="#fecb35"/>
        <path id="Path_27" data-name="Path 27" d="M216.667,229.713h.709v3.265a1.283,1.283,0,0,0,2.563-.014v-3.25h.709v3.265a1.994,1.994,0,0,1-3.981,0Z" transform="translate(-166.05 -229.627)" fill="#fecb35"/>
        <path id="Path_28" data-name="Path 28" d="M235.484,229.713h1.768A1.3,1.3,0,0,1,238.72,231a1.183,1.183,0,0,1-.63,1.088v.014a1.217,1.217,0,0,1,.831,1.224,1.451,1.451,0,0,1-1.625,1.439h-1.811Zm1.768,2.126a.716.716,0,0,0,.745-.766.7.7,0,0,0-.759-.744h-1.045v1.51Zm.079,2.312a.8.8,0,0,0,.866-.859.821.821,0,0,0-.874-.866h-1.131v1.725Z" transform="translate(-177.742 -229.627)" fill="#fecb35"/>
      </g>
    </g>
  </g>
</svg>
