<svg xmlns="http://www.w3.org/2000/svg" width="26.372" height="26.371" viewBox="0 0 26.372 26.371">
  <path id="Icon_awesome-twitter-square" data-name="Icon awesome-twitter-square" d="M23.546,2.25H2.826A2.826,2.826,0,0,0,0,5.075V25.8a2.826,2.826,0,0,0,2.826,2.825H23.546A2.826,2.826,0,0,0,26.372,25.8V5.075A2.826,2.826,0,0,0,23.546,2.25ZM20.668,11.6c.012.165.012.336.012.5A10.909,10.909,0,0,1,9.7,23.082a10.934,10.934,0,0,1-5.928-1.731,8.134,8.134,0,0,0,.93.047A7.741,7.741,0,0,0,9.489,19.75a3.866,3.866,0,0,1-3.608-2.678A4.161,4.161,0,0,0,7.623,17a3.861,3.861,0,0,1-3.09-3.791v-.047a3.858,3.858,0,0,0,1.742.489,3.852,3.852,0,0,1-1.719-3.214A3.812,3.812,0,0,1,5.08,8.49a10.962,10.962,0,0,0,7.959,4.038A3.869,3.869,0,0,1,19.626,9a7.565,7.565,0,0,0,2.449-.93,3.851,3.851,0,0,1-1.7,2.125A7.683,7.683,0,0,0,22.6,9.6,8.126,8.126,0,0,1,20.668,11.6Z" transform="translate(0 -2.25)" fill="#0a674a"/>
</svg>
