<svg xmlns="http://www.w3.org/2000/svg" width="47.15" height="46.167" viewBox="0 0 47.15 46.167">
  <g id="Group_1462" data-name="Group 1462" transform="translate(-229.861 177)">
    <path id="Path_1" data-name="Path 1" d="M151.687,85.658c-1.753-.387-3.615-.7-5.487-.951h0a132.026,132.026,0,0,0-33.376,0h0c-1.872.252-3.733.564-5.487.951v19.753c1.768-.379,3.636-.684,5.508-.932a133.479,133.479,0,0,1,33.334,0c1.872.248,3.74.553,5.508.932Z" transform="translate(123.924 -252.1)" fill="#fff"/>
    <path id="Path_2" data-name="Path 2" d="M132.551,89h0c-3.774.028-13.131.281-20.34,1.779v15.694c7.209-1.5,16.566-1.751,20.34-1.779h0c3.774.028,13.131.281,20.339,1.779V90.78C145.682,89.282,136.325,89.029,132.551,89Z" transform="translate(120.886 -255.436)" fill="#00674a"/>
    <path id="Path_3" data-name="Path 3" d="M154.061,145.413v-2.429q-.939-.149-1.889-.277c0,.569,0,.995,0,1.241,0,1.367-.2,1.8-.682,2.275-3.537,3.455-11.559,6.672-15.983,8.366-4.424-1.694-12.446-4.911-15.983-8.366-.482-.47-.682-.908-.682-2.275,0-.246,0-.672,0-1.241q-.948.128-1.889.277v2.429c0,1.239,1.815,4.794,18.554,11.118C152.246,150.207,154.061,146.651,154.061,145.413Z" transform="translate(117.93 -288.917)" fill="#fff"/>
    <path id="Path_4" data-name="Path 4" d="M116.952,67.343V71.82q.928-.145,1.865-.269h0c0-1.62,0-2.626,0-2.626a58.326,58.326,0,0,1,16.693-2.17,58.328,58.328,0,0,1,16.693,2.17s0,1.006,0,2.626h0q.935.124,1.865.269V67.343a69.205,69.205,0,0,0-37.109,0Z" transform="translate(117.93 -240.355)" fill="#fff"/>
    <path id="Path_13" data-name="Path 13" d="M150.77,70.391l-.542-.126c-.977-.227-1.991-.43-3.025-.612V63.825l-.534-.147a70.805,70.805,0,0,0-38.95,0l-.534.147v5.828c-1.033.182-2.047.385-3.024.612l-.542.126V93.013h.008l3.566,1.556c.153,3.438,6.613,7.512,19.746,12.45l.256.1.256-.1c13.126-4.936,19.587-9.008,19.745-12.445l3.573-1.559h0Zm-42.13-5.456a69.206,69.206,0,0,1,37.109,0v4.478q-.929-.145-1.865-.269h0c0-1.62,0-2.626,0-2.626a58.328,58.328,0,0,0-16.693-2.17,58.326,58.326,0,0,0-16.692,2.17s0,1.006,0,2.626h0q-.935.124-1.865.269ZM145.75,94.442c0,1.239-1.815,4.794-18.555,11.118-16.739-6.323-18.554-9.879-18.554-11.118V92.014q.939-.149,1.889-.277c0,.569,0,.995,0,1.241,0,1.367.2,1.8.682,2.275,3.537,3.455,11.559,6.672,15.983,8.366,4.425-1.694,12.446-4.911,15.983-8.366.482-.47.682-.908.682-2.275,0-.246,0-.673,0-1.241q.948.128,1.889.277Zm3.62-3.184c-1.768-.379-3.636-.684-5.508-.932a133.481,133.481,0,0,0-33.334,0c-1.872.248-3.74.553-5.508.932V71.506c1.754-.387,3.615-.7,5.487-.951h0a132.022,132.022,0,0,1,33.376,0h0c1.872.252,3.733.564,5.487.951Z" transform="translate(126.241 -237.947)" fill="#00674a"/>
    <g id="Group_2" data-name="Group 2" transform="translate(239.407 -163.975)">
      <path id="Path_14" data-name="Path 14" d="M128.968,96.548l2.8-.218,1.858,5.875c.206.649.4,1.67.4,1.67l.029,0s.192-1.05.4-1.732l1.887-6.167,2.758-.215-3.716,10.866-2.684.209Z" transform="translate(-128.968 -95.674)" fill="#ffcb35"/>
      <path id="Path_15" data-name="Path 15" d="M158.5,105.1c0-3.9,4.57-4.537,4.57-6.06a1.062,1.062,0,0,0-1.139-1.066c-1.006-.014-1.568,1.1-1.568,1.1l-1.923-1.314a4.008,4.008,0,0,1,3.727-2.226c1.73.024,3.609,1.041,3.609,3.29,0,3.3-4.26,3.875-4.333,5.235l4.5.063v2.219l-7.322-.1A6.519,6.519,0,0,1,158.5,105.1Z" transform="translate(-147.344 -95.534)" fill="#ffcb35"/>
      <path id="Path_16" data-name="Path 16" d="M183.068,105.212l2.238.212v-4.408c0-.4.015-.812.015-.812l-.029,0a1.746,1.746,0,0,1-.412.523l-.633.517L182.759,99.5,185.6,97.1l2.224.211v8.357l2.253.214V108.1l-7.009-.665Z" transform="translate(-162.502 -96.507)" fill="#ffcb35"/>
    </g>
    <path id="Path_17" data-name="Path 17" d="M164.283,73.58l.358.738.813.113-.592.569.144.808-.724-.387-.724.387L163.7,75l-.591-.569.813-.113Z" transform="translate(89.153 -245.823)" fill="#ffcb35"/>
    <g id="Group_3" data-name="Group 3" transform="translate(250.612 -146.987)">
      <path id="Path_18" data-name="Path 18" d="M164.6,144.482h-2.449l.979-3.838-4.407,5.234h2.448l-1.469,3.838Z" transform="translate(-158.722 -140.644)" fill="#ffcb35"/>
    </g>
  </g>
</svg>
