<svg xmlns="http://www.w3.org/2000/svg" width="29.309" height="26.38" viewBox="0 0 29.309 26.38">
  <path id="Icon_awesome-waze" data-name="Icon awesome-waze" d="M29.65,12.241A11.49,11.49,0,0,1,22.987,24.5,3.044,3.044,0,1,1,17.1,25.744c-.379.011-3.78,0-4.495-.038a3.045,3.045,0,1,1-5.934-1.081A12.241,12.241,0,0,1,.81,20.457,1.539,1.539,0,0,1,2.037,18c2.727,0,1.9-3.19,2.541-6.492C5.663,5.971,11.453,2.25,17.045,2.25c6.034,0,11.609,4.161,12.606,9.991ZM22.075,23.229a10.68,10.68,0,0,0,5.67-6.014c2.384-7.248-3.777-13.425-10.7-13.425-4.914,0-10.029,3.263-10.956,8.008-.561,2.88.294,7.734-4.048,7.734A10.885,10.885,0,0,0,7.559,23.3a3.045,3.045,0,0,1,4.7.844c.837.059,4.663.069,5.176.048a3.044,3.044,0,0,1,4.639-.967ZM12.159,11.385a1.5,1.5,0,1,1,2.994,0,1.5,1.5,0,1,1-2.994,0Zm6.864,0a1.5,1.5,0,1,1,2.995,0A1.5,1.5,0,1,1,19.023,11.385ZM11.8,15.547a.77.77,0,0,1,1.509-.307l0,.016a3.664,3.664,0,0,0,3.776,2.536,3.8,3.8,0,0,0,3.775-2.518.771.771,0,0,1,1.5.353c-.308,1.306-1.838,3.651-5.385,3.7A5.167,5.167,0,0,1,11.8,15.548Z" transform="translate(-0.499 -2.25)" fill="#0a674a"/>
</svg>
